# xmcd
#
# Track frame offsets:
#     150
#     16835
#     39495
#     63380
#     82332
#     99365
#     117380
#     138237
#     157202
#
# Disc length: 2337
#
# Revision: 5
# Processed by: cddbd v1.5.2PL0 Copyright (c) Steve Scherf et al.
# Submitted via: jack 3.1.1
#
DISCID=75091f09
DTITLE=Nick Cave and The Bad Seeds - The Best of Nick Cave and the Bad Seeds Bonus Disc [Live at the Royal Albert Hall]
DYEAR=1998
DGENRE=Alternative
TTITLE0=Lime Tree Arbour
TTITLE1=Stranger Than Kindness
TTITLE2=Red Right Hand
TTITLE3=I Let Love In
TTITLE4=Brompton Oratory
TTITLE5=Henry Lee
TTITLE6=The Weeping Song
TTITLE7=The Ship Song
TTITLE8=Where the Wild Roses Grow
EXTD=YEAR: 1998
EXTT0=
EXTT1=
EXTT2=
EXTT3=
EXTT4=
EXTT5=
EXTT6=
EXTT7=
EXTT8=
PLAYORDER=
